<svg xmlns="http://www.w3.org/2000/svg" xmlns:xlink="http://www.w3.org/1999/xlink" width="54" height="55" viewBox="0 0 54 55"><defs><path id="a" d="M118 592a26 26 0 1 0 0-52 26 26 0 0 0 0 52z"/><path id="b" d="M133.62 560h-2.71v3.8H127v2.72h3.91v3.91h2.71v-3.91h3.8v-2.72h-3.8z"/><path id="c" d="M113.96 563.8v4.35h5.92c-.93 2.82-2.37 4.35-5.92 4.35-3.6 0-6.4-2.92-6.4-6.52a6.42 6.42 0 0 1 10.65-4.92c.9-.9.83-1.03 3.12-3.2a10.97 10.97 0 1 0-7.37 19.1c9.05 0 11.26-7.89 10.52-13.16h-10.52z"/></defs><use fill="#fff" fill-opacity="0" stroke="#fff" stroke-miterlimit="50" stroke-width="2" xlink:href="#a" transform="translate(-91 -538)"/><use fill="#fff" xlink:href="#b" transform="translate(-91 -538)"/><use fill="#fff" xlink:href="#c" transform="translate(-91 -538)"/></svg>