<svg xmlns="http://www.w3.org/2000/svg" xmlns:xlink="http://www.w3.org/1999/xlink" width="23" height="19" viewBox="0 0 23 19"><defs><path id="a" d="M352.52 32a5.6 5.6 0 0 0-4.43 2.22 5.56 5.56 0 0 0-4.42-2.22c-1 0-1.98.28-2.83.8a6.14 6.14 0 0 0-2.07 8.15c1.28 2.33 6.67 6.37 8.62 7.78.42.3.99.3 1.41 0 1.95-1.41 7.34-5.45 8.62-7.78a6.14 6.14 0 0 0-2.08-8.15 5.42 5.42 0 0 0-2.82-.8z"/></defs><use fill="#fff" fill-opacity="0" stroke="#f2f2f2" stroke-miterlimit="50" stroke-width="2" xlink:href="#a" transform="translate(-336 -31)"/></svg>