<svg xmlns="http://www.w3.org/2000/svg" xmlns:xlink="http://www.w3.org/1999/xlink" width="22" height="25" viewBox="0 0 22 25"><defs><path id="a" d="M271 391a3 3 0 0 1 3-3h13a3 3 0 0 1 3 3v10a3 3 0 0 1-3 3h-13a3 3 0 0 1-3-3zm9.5 9a2.5 2.5 0 1 0 0-5 2.5 2.5 0 0 0 0 5zm6-12.5c0-3.59-2.69-6.5-6-6.5s-6 2.91-6 6.5v.5h12z"/></defs><use fill="#fff" fill-opacity="0" stroke="#fff" stroke-linecap="round" stroke-linejoin="round" stroke-miterlimit="50" stroke-width="2" xlink:href="#a" transform="translate(-269 -380)"/></svg>