<svg xmlns="http://www.w3.org/2000/svg" xmlns:xlink="http://www.w3.org/1999/xlink" width="39" height="39" viewBox="0 0 39 39"><defs><path id="a" d="M60 597.04a5.04 5.04 0 1 1 10.08 0 5.04 5.04 0 0 1-10.08 0zm15 5.32a3.36 3.36 0 1 1 6.72 0 3.36 3.36 0 0 1-6.72 0zm-17 7.71c0-4.41 3.26-7.99 7.28-7.99 4.02 0 7.27 3.58 7.27 7.99v7.68H58v-7.68zm25.75 7.68v-5.04c0-3.63-2.51-6.72-5.61-6.72a5.2 5.2 0 0 0-3.91 1.86c-.13.15-1.12 1.22-1.4 2.9-.28 1.68-.28 1.96-.28 1.96v5.04z"/></defs><use fill="#fff" fill-opacity="0" stroke="#000" stroke-linecap="round" stroke-linejoin="round" stroke-miterlimit="50" stroke-width="3" xlink:href="#a" transform="translate(-51 -589)"/></svg>