<svg xmlns="http://www.w3.org/2000/svg" xmlns:xlink="http://www.w3.org/1999/xlink" width="29" height="30" viewBox="0 0 29 30"><defs><path id="a" d="M47 425.86c0-2.69 2.05-4.86 4.58-4.86 2.53 0 4.58 2.17 4.58 4.86 0 2.68-2.05 4.85-4.58 4.85-2.53 0-4.58-2.17-4.58-4.85zm0 17c0-2.69 2.05-4.86 4.58-4.86 2.53 0 4.58 2.17 4.58 4.86 0 2.68-2.05 4.85-4.58 4.85-2.53 0-4.58-2.17-4.58-4.85zm-16-9c0-2.69 2.05-4.86 4.58-4.86 2.53 0 4.58 2.17 4.58 4.86 0 2.68-2.05 4.85-4.58 4.85-2.53 0-4.58-2.17-4.58-4.85z"/></defs><use fill="#fff" fill-opacity="0" stroke="#575e62" stroke-linecap="round" stroke-linejoin="round" stroke-miterlimit="50" stroke-width="3" xlink:href="#a" transform="translate(-29 -419)"/></svg>