<svg xmlns="http://www.w3.org/2000/svg" xmlns:xlink="http://www.w3.org/1999/xlink" width="55" height="55" viewBox="0 0 55 55"><defs><path id="a" d="M231 566a26 26 0 1 1 52 0 26 26 0 0 1-52 0z"/><path id="b" d="M257.38 561.06l.06.98-.99-.12a16.19 16.19 0 0 1-9.48-4.66l-1.32-1.31-.34.97a5.83 5.83 0 0 0 1.24 5.95c.8.84.62.96-.76.46-.48-.16-.89-.28-.93-.22-.14.14.33 1.97.71 2.69a6.5 6.5 0 0 0 2.73 2.58l.98.46-1.16.02c-1.11 0-1.15.02-1.03.44.4 1.31 1.97 2.7 3.72 3.3l1.24.42-1.08.64a11.16 11.16 0 0 1-5.34 1.49c-.89.02-1.63.1-1.63.16 0 .2 2.43 1.33 3.84 1.77 4.25 1.31 9.28.75 13.07-1.49a17.44 17.44 0 0 0 6.63-7.8c.68-1.62 1.35-4.6 1.35-6.03 0-.92.06-1.04 1.18-2.15.66-.64 1.27-1.35 1.39-1.55.2-.38.18-.38-.83-.04-1.7.61-1.94.53-1.1-.38.62-.64 1.35-1.81 1.35-2.15 0-.06-.29.04-.63.22-.36.2-1.16.5-1.75.68l-1.08.35-.98-.67a7.88 7.88 0 0 0-1.69-.88 6.82 6.82 0 0 0-3.48.08 5.76 5.76 0 0 0-3.89 5.79z"/></defs><use fill="#fff" fill-opacity="0" stroke="#fff" stroke-miterlimit="50" stroke-width="2" xlink:href="#a" transform="translate(-229 -538)"/><use fill="#fff" xlink:href="#b" transform="translate(-229 -538)"/></svg>